<svg width="72" height="36" viewBox="0 0 72 36" fill="none" xmlns="http://www.w3.org/2000/svg">
<path d="M45.4112 5.01156C46.741 5.01156 47.8191 3.90905 47.8191 2.54905C47.8191 1.18905 46.741 0.0865479 45.4112 0.0865479C44.0814 0.0865479 43.0034 1.18905 43.0034 2.54905C43.0034 3.90905 44.0814 5.01156 45.4112 5.01156Z" fill="#990100"/>
<path d="M4.51747 0.397461H0.354425C0.157524 0.397461 0 0.558558 0 0.759931V35.6377C0 35.8391 0.157524 36.0002 0.354425 36.0002H16.956C17.1529 36.0002 17.3104 35.8391 17.3104 35.6377V32.1914C17.3104 31.99 17.1529 31.8289 16.956 31.8289H5.22069C5.02379 31.8289 4.86626 31.6678 4.86626 31.4664V0.759931C4.86626 0.558558 4.70874 0.397461 4.51184 0.397461H4.51747Z" fill="#990100"/>
<path d="M36.5338 13.6007C35.8193 12.7837 34.9361 12.1509 33.8784 11.7021C32.8264 11.2533 31.6225 11.0289 30.2667 11.0289C27.0431 11.0289 24.2078 12.0013 21.7662 13.9517C21.1699 14.4235 21.0011 15.275 21.3724 15.9482L21.7437 16.6271C22.1825 17.4383 23.2064 17.6973 23.9659 17.1909C25.316 16.2876 27.4876 15.1139 29.6478 15.1139C31.0487 15.1139 32.1063 15.5397 32.832 16.3855C33.5521 17.237 33.9178 18.5258 33.9178 20.2576V21.8628C31.2399 21.9261 28.9897 22.185 27.1669 22.6395C25.3442 23.0941 23.8758 23.6752 22.7619 24.3713C21.648 25.0733 20.8492 25.8615 20.3598 26.7418C19.8759 27.6221 19.634 28.5254 19.634 29.4574C19.634 30.5448 19.8084 31.4884 20.1516 32.2882C20.5004 33.0879 20.973 33.7611 21.5693 34.3077C22.1656 34.8542 22.8801 35.257 23.7015 35.5216C24.5228 35.7863 25.4117 35.9244 26.368 35.9244C27.2288 35.9244 28.0164 35.8496 28.7309 35.7C29.4453 35.5504 30.1148 35.326 30.7392 35.0268C31.3637 34.7277 31.9657 34.3652 32.5507 33.9279C33.1358 33.4964 33.7265 33.0016 34.3285 32.455V35.9244H36.1512C37.5745 35.9244 38.7334 34.7449 38.7334 33.2835V20.2576C38.7334 18.8882 38.5422 17.6397 38.1652 16.5178C37.7883 15.3958 37.2426 14.4235 36.5281 13.6065L36.5338 13.6007ZM33.9178 29.4805C33.0402 30.424 32.1401 31.1432 31.2062 31.638C30.2779 32.1328 29.1641 32.3802 27.8701 32.3802C27.3638 32.3802 26.8969 32.3227 26.4749 32.2019C26.053 32.081 25.6817 31.8969 25.3667 31.638C25.0516 31.3791 24.8041 31.0454 24.6297 30.6484C24.4553 30.2457 24.3653 29.7624 24.3653 29.1985C24.3653 28.6347 24.5284 28.0824 24.8604 27.5933C25.1923 27.1043 25.7323 26.6842 26.4862 26.3333C27.24 25.9766 28.2245 25.6889 29.4397 25.4587C30.6549 25.2286 32.1457 25.0848 33.9178 25.0215V29.4805Z" fill="#990100"/>
<path d="M47.8186 8.078H42.9973V35.948H47.8186V8.078Z" fill="#990100"/>
<path d="M62.2771 22.2371L71.1601 11.1673C71.3627 10.9142 71.1883 10.5344 70.8676 10.5344H67.5428C67.1265 10.5344 66.7833 10.6092 66.5133 10.7646C66.2433 10.9199 66.0013 11.1443 65.7763 11.4493L59.3798 18.9288C59.1548 19.2165 58.941 19.4121 58.7329 19.4984C58.5247 19.5905 58.2547 19.6365 57.9284 19.6365C57.3602 19.6365 56.8989 19.1647 56.8989 18.5836V0.390995C56.8989 0.178115 56.7301 -0.000244141 56.5163 -0.000244141H52.4658C52.2577 -0.000244141 52.0833 0.172361 52.0833 0.390995V18.9231C52.0833 21.1209 53.8216 22.8987 55.9706 22.8987H60.8988C61.4332 22.8987 61.9396 22.6513 62.2771 22.2313V22.2371Z" fill="#990100"/>
<path d="M56.893 35.6084V25.3269H58.2432C58.6933 25.3269 59.0252 25.3786 59.2502 25.4764C59.4753 25.5742 59.7003 25.7986 59.9197 26.1496L66.3555 35.0733C66.5637 35.4243 66.8056 35.6659 67.0813 35.7925C67.3569 35.9248 67.6888 35.9881 68.077 35.9881H71.6212C71.9307 35.9881 72.1107 35.6256 71.925 35.3667L64.2684 24.7285C64.1952 24.6307 64.0827 24.5674 63.9646 24.5674H52.4543C52.2462 24.5674 52.0718 24.74 52.0718 24.9586V35.5969C52.0718 35.8098 52.2462 35.9881 52.4543 35.9881H56.5049C56.713 35.9881 56.8874 35.8155 56.8874 35.5969L56.893 35.6084Z" fill="#990100"/>
</svg>
